# xmcd
#
# Track frame offsets:
#	150
#	16885
#	33085
#	51915
#	67345
#	85067
#	98827
#	117052
#	129547
#	142977
#	159845
#	175442
#	190047
#	204942
#
# Disc length: 2931 seconds
#
# Revision: 0
# Processed by: cddbd v1.5.2PL0 Copyright (c) Steve Scherf et al.
# Submitted via: audiograbber 1.81.02
#
DISCID=b20b710e
DTITLE=Various Artistas - Originais em 3 CD's SERTANEJO
DYEAR=2007
DGENRE=
TTITLE0=Zeze di Camargo and Luciano - A Ferro e Fogo
TTITLE1=Leonardo - Entre Tapas e Beijos
TTITLE2=Leonardo - Cristal Quebrado
TTITLE3=Leandro and Leonardo - Mexe Mexe
TTITLE4=Bruno e Marrone - Vai dar Namoro
TTITLE5=Bruno e Marrone - Amor de Carnaval
TTITLE6=Gian and Giovani - Festa de Rodeio
TTITLE7=Chystian e Ralf - Sentimento Louco
TTITLE8=Chystian e Ralf - Vira, Virou
TTITLE9=Chystian e Ralf - Ansiedade
TTITLE10=Sergio Reis - Comitiva Esperanca
TTITLE11=Sergio Reis - Panela Velha
TTITLE12=Almir Sater - Trem de Lata
TTITLE13=Almir Sater - Um Violeiro Toca
EXTD=
EXTT0=
EXTT1=
EXTT2=
EXTT3=
EXTT4=
EXTT5=
EXTT6=
EXTT7=
EXTT8=
EXTT9=
EXTT10=
EXTT11=
EXTT12=
EXTT13=
PLAYORDER=
